# AST/ASF file generated using VICON BodyLanguage
# -----------------------------------------------
:version 1.10
:name VICON
:units
  mass 1.0
  length 0.45
  angle deg
:documentation
   .ast/.asf automatically generated from VICON data using
   VICON BodyBuilder and BodyLanguage model FoxedUp or BRILLIANT.MOD
:root
   order TX TY TZ RX RY RZ
   axis XYZ
   position 0 0 0  
   orientation 0 0 0 
:bonedata
  begin
     id 1 
     name lhipjoint
     direction 0.711131 -0.61297 0.344326 
     length 2.29162 
     axis 0 0 0  XYZ
  end
  begin
     id 2 
     name lfemur
     direction 0.34202 -0.939693 0  
     length 6.71424  
     axis 0 0 20  XYZ
    dof rx ry rz
    limits (-160.0 20.0)
           (-70.0 70.0)
           (-60.0 70.0)
  end
  begin
     id 3 
     name ltibia
     direction 0.34202 -0.939693 0   
     length 6.7087   
     axis 0 0 20   XYZ
    dof rx
    limits (-10.0 170.0)
  end
  begin
     id 4 
     name lfoot
     direction 0.0230374 -0.0632947 0.997729   
     length 1.56743   
     axis -90 7.62852e-016 20   XYZ
    dof rx rz
    limits (-45.0 90.0)
           (-70.0 20.0)
  end
  begin
     id 5 
     name ltoes
     direction 1.53585e-011 -4.21885e-011 1   
     length 0.802914   
     axis -90 7.62852e-016 20   XYZ
    dof rx
    limits (-90.0 20.0)
  end
  begin
     id 6 
     name rhipjoint
     direction -0.733192 -0.592884 0.333043   
     length 2.36925  
     axis 0 0 0  XYZ 
  end
  begin
     id 7 
     name rfemur
     direction -0.34202 -0.939693 0   
     length 6.67027   
     axis 0 0 -20   XYZ
    dof rx ry rz
    limits (-160.0 20.0)
           (-70.0 70.0)
           (-70.0 60.0)
  end
  begin
     id 8 
     name rtibia
     direction -0.34202 -0.939693 0   
     length 6.6862   
     axis 0 0 -20   XYZ
    dof rx
    limits (-10.0 170.0)
 end
 begin
     id 9 
     name rfoot
     direction -0.0949739 -0.260939 0.960672   
     length 1.67698  
     axis -90 -7.62852e-016 -20   XYZ
    dof rx rz
    limits (-45.0 90.0)
           (-20.0 70.0)
  end
  begin
     id 10 
     name rtoes
     direction -1.5353e-011 -4.21868e-011 1   
     length 0.846298   
     axis -90 -7.62852e-016 -20   XYZ
    dof rx
    limits (-90.0 20.0)
  end
  begin
     id 11 
     name lowerback
     direction -0.0206828 0.999785 -0.00109866   
     length 2.04382   
     axis 0 0 0   XYZ
    dof rx ry rz
    limits (-20.0 45.0)
           (-30.0 30.0)
           (-30.0 30.0)
  end
  begin
     id 12 
     name upperback
     direction -0.0105003 0.999727 -0.0208904   
     length 2.04538   
     axis 0 0 0   XYZ
    dof rx ry rz
    limits (-20.0 45.0)
           (-30.0 30.0)
           (-30.0 30.0)
  end
  begin
     id 13 
     name thorax
     direction -0.000416255 0.999808 -0.0196023   
     length 2.0399   
     axis 0 0 0   XYZ
    dof rx ry rz
    limits (-20.0 45.0)
           (-30.0 30.0)
           (-30.0 30.0)
  end
  begin
     id 14 
     name lowerneck
     direction 0.0627861 0.989205 0.13241   
     length 1.46207   
     axis 0 0 0   XYZ
    dof rx ry rz
    limits (-20.0 45.0)
           (-30.0 30.0)
           (-30.0 30.0)
  end
  begin
     id 15 
     name upperneck
     direction 0.00627179 0.994526 0.104303   
     length 1.41419   
     axis 0 0 0   XYZ
    dof rx ry rz
    limits (-20.0 45.0)
           (-30.0 30.0)
           (-30.0 30.0)
  end
  begin
     id 16
     name head
     direction -0.00443838 0.999688 0.0245968  
     length 1.50718  
     axis 0 0 0   XYZ
    dof rx ry rz
    limits (-20.0 45.0)
           (-30.0 30.0)
           (-30.0 30.0)
  end
  begin
     id 17 
     name lclavicle
     direction 0.758742 0.650995 -0.0227258  
     length 2.86888  
     axis 0 0 0   XYZ
    dof ry rz
    limits (-20.0 10.0)
           (0.0 20.0)
  end
  begin
     id 18 
     name lhumerus
     direction 1 -4.48962e-011 1.06664e-027   
     length 4.65776   
     axis -180 -30 -90   XYZ
    dof rx ry rz
    limits (-60.0 90.0)
           (-90.0 90.0)
           (-90.0 90.0)
  end
  begin
     id 19
     name lradius
     direction 1 -4.48968e-011 1.40404e-026   
     length 3.55539   
     axis -180 -30 -90   XYZ
    dof rx
    limits (-10.0 170.0)
  end
  begin
     id 20
     name lwrist
     direction 1 -4.48976e-011 3.32647e-026   
     length 1.77769   
     axis -2.20186e-014 90 90   XYZ
    dof ry
    limits (-180.0 0.0)
 end
  begin
     id 21 
     name lhand
     direction 1 -4.48982e-011 6.65293e-026   
     length 0.707264   
     axis -4.24514e-014 90 90   XYZ
    dof rx rz
    limits (-90.0 90.0)
           (-45.0 45.0)
  end
  begin
     id 22 
     name lfingers
     direction 1 -4.48966e-011 1.33059e-025   
     length 0.570215   
     axis -8.49028e-014 90 90   XYZ
    dof rx
    limits (0.0 90.0)
  end
  begin
     id 23
     name lthumb
     direction 0.707107 -6.3493e-011 0.707107   
     length 0.818718   
     axis -90 45 2.85299e-015   XYZ
    dof rx rz
    limits (-45.0 45.0)
           (-45.0 45.0)
  end
  begin
     id 24 
     name rclavicle
     direction -0.870343 0.482028 -0.100759   
     length 3.2251  
     axis 0 0 0   XYZ 
    dof ry rz
    limits (-10.0 20.0)
           (-20.0 0.0)
  end
  begin
     id 25 
     name rhumerus
     direction -1 -4.48974e-011 -9.45849e-028  
     length 4.71925   
     axis -180 30 90   XYZ
    dof rx ry rz
    limits (-90.0 60.0)
           (-90.0 90.0)
           (-90.0 90.0)
  end
  begin
     id 26 
     name rradius
     direction -1 -4.48965e-011 1.17607e-026   
     length 3.5699   
     axis -180 30 90   XYZ
    dof rx
    limits (-10.0 170.0)
  end
  begin
     id 27 
     name rwrist
     direction -1 -4.48968e-011 3.32647e-026   
     length 1.78495   
     axis -2.20186e-014 -90 -90   XYZ
    dof ry
    limits (-180.0 0.0)
  end
  begin
     id 28
     name rhand
     direction -1 -4.48995e-011 6.65293e-026   
     length 0.507757   
     axis -4.24514e-014 -90 -90   XYZ
    dof rx rz
    limits (-90.0 90.0)
           (-45.0 45.0)
  end
  begin
     id 29
     name rfingers
     direction -1 -4.48864e-011 1.33059e-025   
     length 0.409367   
     axis -8.49028e-014 -90 -90   XYZ
    dof rx
    limits (0.0 90.0)
  end
  begin
     id 30
     name rthumb
     direction -0.707107 -6.3494e-011 0.707107   
     length 0.587771   
     axis -90 -45 -2.85299e-015   XYZ
    dof rx rz
    limits (-45.0 45.0)
           (-45.0 45.0)
  end
:hierarchy
  begin
    root lhipjoint rhipjoint lowerback
    lhipjoint lfemur
    lfemur ltibia
    ltibia lfoot
    lfoot ltoes
    rhipjoint rfemur
    rfemur rtibia
    rtibia rfoot
    rfoot rtoes
    lowerback upperback
    upperback thorax
    thorax lowerneck lclavicle rclavicle
    lowerneck upperneck
    upperneck head
    lclavicle lhumerus
    lhumerus lradius
    lradius lwrist
    lwrist lhand lthumb
    lhand lfingers
    rclavicle rhumerus
    rhumerus rradius
    rradius rwrist
    rwrist rhand rthumb
    rhand rfingers
  end

#!OML:ASF E:\Steps\Project 1\Capture day 1\Session 2\Subject.ASF
:FULLY-SPECIFIED
:DEGREES
1
root 8.7882 16.3432 31.4834 -157.041 2.3195 178.752
lowerback -27.3149 -1.81001 -6.35831
upperback -1.74064 0.27871 -0.490393
thorax 13.31 0.0177908 3.27262
lowerneck -0.574132 -4.19026 -2.37632
upperneck -9.54907 -4.75211 6.27562
head -2.73743 -2.27968 2.54474
rclavicle 7.05686e-015 3.97569e-015
rhumerus -33.2902 -17.7237 -80.6926
rradius 30.0572
rwrist 4.45397
rhand -14.733 -73.1124
rfingers 7.12502
rthumb -168.578 -77.2187
lclavicle 7.05686e-015 3.97569e-015
lhumerus -27.4958 6.51218 82.1595
lradius 21.1357
lwrist -11.7691
lhand -22.0715 -13.2664
lfingers 7.12502
lthumb 4.33975 16.6691
rfemur -20.9251 9.23564 16.7149
rtibia 9.15846
rfoot -26.1937 -7.90109
rtoes -18.4976
lfemur -20.001 -9.67394 -19.8971
ltibia 6.78296
lfoot -8.62727 4.91922
ltoes -43.8359
2
root 8.7939 16.3296 31.4858 -157.309 2.02391 179.427
lowerback -27.0196 -1.6694 -5.68813
upperback -1.64954 0.169889 -0.269478
thorax 13.265 -0.0154077 3.09498
lowerneck -0.518348 -4.21675 -2.49131
upperneck -9.72429 -4.7724 6.30993
head -2.80275 -2.28479 2.58404
rclavicle -2.5345e-015 3.29983e-014
rhumerus -33.2382 -17.6151 -80.6625
rradius 29.7695
rwrist 3.89697
rhand -3.70688 -52.8606
rfingers 7.12502
rthumb -157.965 98.3747
lclavicle -2.5345e-015 3.29983e-014
lhumerus -27.5466 6.95651 81.9956
lradius 20.5247
lwrist -12.0866
lhand -22.2122 -13.4589
lfingers 7.12502
lthumb 4.20391 16.4794
rfemur -20.5139 9.2441 17.6793
rtibia 9.14841
rfoot -26.2795 -7.827
rtoes -18.1162
lfemur -19.733 -9.37328 -19.1113
ltibia 6.81765
lfoot -8.57717 4.67632
ltoes -44.2246
3
root 8.80678 16.3259 31.4753 -158.01 1.12911 180.023
lowerback -26.3247 -1.71129 -5.14661
upperback -1.45223 -0.177654 -0.0478413
thorax 13.1471 -0.173203 2.89932
lowerneck -0.547646 -4.29891 -2.43314
upperneck -9.77554 -4.86254 6.41408
head -2.80934 -2.331 2.6102
rclavicle 0 1.19271e-015
rhumerus -33.3469 -17.6377 -80.6639
rradius 29.6038
rwrist 3.41456
rhand -4.21912 -54.046
rfingers 7.12502
rthumb -158.456 97.1322
lclavicle 0 1.19271e-015
lhumerus -27.6114 7.43024 81.7041
lradius 19.922
lwrist -12.4274
lhand -22.0027 -13.5342
lfingers 7.12502
lthumb 4.40619 16.3999
rfemur -19.1868 9.60042 18.7159
rtibia 8.54803
rfoot -26.1859 -8.67578
rtoes -17.9706
lfemur -18.9861 -9.23751 -18.3251
ltibia 6.82161
lfoot -8.63004 3.9655
ltoes -44.1878
4
root 8.79154 16.3116 31.5036 -157.119 1.62274 180.303
lowerback -26.8976 -1.42955 -4.58783
upperback -1.73519 0.118499 -0.131548
thorax 13.099 0.0281162 2.59857
lowerneck -0.523186 -4.26827 -2.42704
upperneck -9.66668 -4.83011 6.45273
head -2.77805 -2.3189 2.61929
rclavicle -4.37326e-015 -6.36111e-015
rhumerus -33.4042 -17.9103 -80.6276
rradius 29.3247
rwrist 3.16688
rhand -5.10168 -54.6591
rfingers 7.12502
rthumb -159.304 96.4244
lclavicle -4.37326e-015 -6.36111e-015
lhumerus -27.6187 7.74653 81.4511
lradius 19.3502
lwrist -12.58
lhand -21.7916 -13.6048
lfingers 7.12502
lthumb 4.60998 16.325
rfemur -20.6979 9.00809 18.8722
rtibia 9.19617
rfoot -26.1686 -7.57366
rtoes -18.1355
lfemur -20.1191 -8.89653 -18.0611
ltibia 7.05362
lfoot -8.67982 4.21655
ltoes -44.2099
5
root 8.79962 16.317 31.4988 -157.821 0.562094 180.512
lowerback -26.1642 -1.64713 -4.36672
upperback -1.53378 -0.341382 0.0144841
thorax 12.9703 -0.195373 2.46068
lowerneck -0.413096 -4.2376 -2.48349
upperneck -9.80727 -4.77839 6.47144
head -2.84704 -2.29202 2.64298
rclavicle 1.39149e-015 7.95139e-016
rhumerus -33.5191 -17.9036 -80.6235
rradius 29.1806
rwrist 2.83442
rhand -6.39255 -54.0896
rfingers 7.12502
rthumb -160.545 96.8637
lclavicle 1.39149e-015 7.95139e-016
lhumerus -27.6375 7.66477 81.39
lradius 18.7138
lwrist -12.3496
lhand -21.6527 -13.6207
lfingers 7.12502
lthumb 4.74416 16.3062
rfemur -21.8878 13.1594 18.9505
rtibia 14.4056
rfoot -29.5531 -12.2376
rtoes -17.6754
lfemur -19.5117 -9.1291 -17.6907
ltibia 7.2199
lfoot -8.6945 3.52464
ltoes -44.4081
